# xmcd
#
# Track frame offsets: 
#        150
#        15228
#        30235
#        47583
#        59557
#        75003
#        88838
#        105051
#        120662
#        134472
#        152062
#        166976
#        180582
#        198247
#        211801
#        226341
#
# Disc length: 3247 seconds
#
# Revision: 0
# Processed by: cddbd v1.5.2PL0 Copyright (c) Steve Scherf et al.
# Submitted via: ExactAudioCopy v0.99pb4
#
DISCID=b30cad10
DTITLE=Владимир Асмолов - Анатомия любви или sex по-русски III
DYEAR=1900
DGENRE=
TTITLE0=Привет, весна
TTITLE1=Голова дурная
TTITLE2=Дымография
TTITLE3=Толстушка
TTITLE4=Здоровый секс
TTITLE5=чух-чух
TTITLE6=Уже не всякий раз
TTITLE7=Лисички
TTITLE8=Коробейники
TTITLE9=Не командуй
TTITLE10=Милка
TTITLE11=Анатомия любви
TTITLE12=Песни мои
TTITLE13=Динамо
TTITLE14=Боец Омона
TTITLE15=Дымография (инструментал)
EXTD=
EXTT0=
EXTT1=
EXTT2=
EXTT3=
EXTT4=
EXTT5=
EXTT6=
EXTT7=
EXTT8=
EXTT9=
EXTT10=
EXTT11=
EXTT12=
EXTT13=
EXTT14=
EXTT15=
PLAYORDER=
